<svg width="600" height="600" viewBox="0 0 600 600" fill="none" xmlns="http://www.w3.org/2000/svg">
<mask id="mask0_1375_16" style="mask-type:alpha" maskUnits="userSpaceOnUse" x="0" y="0" width="300" height="300">
<rect width="300" height="300" fill="#D9D9D9"/>
</mask>
<g mask="url(#mask0_1375_16)">
<path fill-rule="evenodd" clip-rule="evenodd" d="M8.7867 8.7867C20.5026 -2.9289 39.4974 -2.9289 51.2133 8.7867L135 92.5737L218.787 8.7867C230.503 -2.9289 249.498 -2.9289 261.213 8.7867C272.928 20.5026 272.928 39.4974 261.213 51.2133L177.426 135L261.213 218.787C272.928 230.503 272.928 249.498 261.213 261.213C249.498 272.928 230.503 272.928 218.787 261.213L135 177.426L51.2133 261.213C39.4974 272.928 20.5026 272.928 8.7867 261.213C-2.9289 249.498 -2.9289 230.503 8.7867 218.787L92.5737 135L8.7867 51.2133C-2.9289 39.4974 -2.9289 20.5026 8.7867 8.7867ZM465 60C423.579 60 390 93.5787 390 135C390 176.421 423.579 210 465 210C506.421 210 540 176.421 540 135C540 93.5787 506.421 60 465 60ZM330 135C330 60.4416 390.441 0 465 0C539.559 0 600 60.4416 600 135C600 209.558 539.559 270 465 270C390.441 270 330 209.558 330 135ZM135 390C93.5787 390 60 423.579 60 465C60 506.421 93.5787 540 135 540C176.421 540 210 506.421 210 465C210 423.579 176.421 390 135 390ZM0 465C0 390.441 60.4416 330 135 330C209.558 330 270 390.441 270 465C270 539.559 209.558 600 135 600C60.4416 600 0 539.559 0 465ZM338.787 338.787C350.502 327.072 369.498 327.072 381.213 338.787L465 422.574L548.787 338.787C560.502 327.072 579.498 327.072 591.213 338.787C602.928 350.502 602.928 369.498 591.213 381.213L507.426 465L591.213 548.787C602.928 560.502 602.928 579.498 591.213 591.213C579.498 602.928 560.502 602.928 548.787 591.213L465 507.426L381.213 591.213C369.498 602.928 350.502 602.928 338.787 591.213C327.072 579.498 327.072 560.502 338.787 548.787L422.574 465L338.787 381.213C327.072 369.498 327.072 350.502 338.787 338.787Z" fill="#FF6D4D"/>
</g>
<mask id="mask1_1375_16" style="mask-type:alpha" maskUnits="userSpaceOnUse" x="300" y="0" width="300" height="300">
<rect x="300" width="300" height="300" fill="#D9D9D9"/>
</mask>
<g mask="url(#mask1_1375_16)">
<path fill-rule="evenodd" clip-rule="evenodd" d="M8.7867 8.7867C20.5026 -2.9289 39.4974 -2.9289 51.2133 8.7867L135 92.5737L218.787 8.7867C230.503 -2.9289 249.498 -2.9289 261.213 8.7867C272.928 20.5026 272.928 39.4974 261.213 51.2133L177.426 135L261.213 218.787C272.928 230.503 272.928 249.498 261.213 261.213C249.498 272.928 230.503 272.928 218.787 261.213L135 177.426L51.2133 261.213C39.4974 272.928 20.5026 272.928 8.7867 261.213C-2.9289 249.498 -2.9289 230.503 8.7867 218.787L92.5737 135L8.7867 51.2133C-2.9289 39.4974 -2.9289 20.5026 8.7867 8.7867ZM465 60C423.579 60 390 93.5787 390 135C390 176.421 423.579 210 465 210C506.421 210 540 176.421 540 135C540 93.5787 506.421 60 465 60ZM330 135C330 60.4416 390.441 0 465 0C539.559 0 600 60.4416 600 135C600 209.558 539.559 270 465 270C390.441 270 330 209.558 330 135ZM135 390C93.5787 390 60 423.579 60 465C60 506.421 93.5787 540 135 540C176.421 540 210 506.421 210 465C210 423.579 176.421 390 135 390ZM0 465C0 390.441 60.4416 330 135 330C209.558 330 270 390.441 270 465C270 539.559 209.558 600 135 600C60.4416 600 0 539.559 0 465ZM338.787 338.787C350.502 327.072 369.498 327.072 381.213 338.787L465 422.574L548.787 338.787C560.502 327.072 579.498 327.072 591.213 338.787C602.928 350.502 602.928 369.498 591.213 381.213L507.426 465L591.213 548.787C602.928 560.502 602.928 579.498 591.213 591.213C579.498 602.928 560.502 602.928 548.787 591.213L465 507.426L381.213 591.213C369.498 602.928 350.502 602.928 338.787 591.213C327.072 579.498 327.072 560.502 338.787 548.787L422.574 465L338.787 381.213C327.072 369.498 327.072 350.502 338.787 338.787Z" fill="#180202"/>
</g>
<mask id="mask2_1375_16" style="mask-type:alpha" maskUnits="userSpaceOnUse" x="300" y="300" width="300" height="300">
<rect x="300" y="300" width="300" height="300" fill="#D9D9D9"/>
</mask>
<g mask="url(#mask2_1375_16)">
<path fill-rule="evenodd" clip-rule="evenodd" d="M8.7867 8.7867C20.5026 -2.9289 39.4974 -2.9289 51.2133 8.7867L135 92.5737L218.787 8.7867C230.503 -2.9289 249.498 -2.9289 261.213 8.7867C272.928 20.5026 272.928 39.4974 261.213 51.2133L177.426 135L261.213 218.787C272.928 230.503 272.928 249.498 261.213 261.213C249.498 272.928 230.503 272.928 218.787 261.213L135 177.426L51.2133 261.213C39.4974 272.928 20.5026 272.928 8.7867 261.213C-2.9289 249.498 -2.9289 230.503 8.7867 218.787L92.5737 135L8.7867 51.2133C-2.9289 39.4974 -2.9289 20.5026 8.7867 8.7867ZM465 60C423.579 60 390 93.5787 390 135C390 176.421 423.579 210 465 210C506.421 210 540 176.421 540 135C540 93.5787 506.421 60 465 60ZM330 135C330 60.4416 390.441 0 465 0C539.559 0 600 60.4416 600 135C600 209.558 539.559 270 465 270C390.441 270 330 209.558 330 135ZM135 390C93.5787 390 60 423.579 60 465C60 506.421 93.5787 540 135 540C176.421 540 210 506.421 210 465C210 423.579 176.421 390 135 390ZM0 465C0 390.441 60.4416 330 135 330C209.558 330 270 390.441 270 465C270 539.559 209.558 600 135 600C60.4416 600 0 539.559 0 465ZM338.787 338.787C350.502 327.072 369.498 327.072 381.213 338.787L465 422.574L548.787 338.787C560.502 327.072 579.498 327.072 591.213 338.787C602.928 350.502 602.928 369.498 591.213 381.213L507.426 465L591.213 548.787C602.928 560.502 602.928 579.498 591.213 591.213C579.498 602.928 560.502 602.928 548.787 591.213L465 507.426L381.213 591.213C369.498 602.928 350.502 602.928 338.787 591.213C327.072 579.498 327.072 560.502 338.787 548.787L422.574 465L338.787 381.213C327.072 369.498 327.072 350.502 338.787 338.787Z" fill="#180202"/>
</g>
<mask id="mask3_1375_16" style="mask-type:alpha" maskUnits="userSpaceOnUse" x="0" y="300" width="300" height="300">
<rect y="300" width="300" height="300" fill="#D9D9D9"/>
</mask>
<g mask="url(#mask3_1375_16)">
<path fill-rule="evenodd" clip-rule="evenodd" d="M8.7867 8.7867C20.5026 -2.9289 39.4974 -2.9289 51.2133 8.7867L135 92.5737L218.787 8.7867C230.503 -2.9289 249.498 -2.9289 261.213 8.7867C272.928 20.5026 272.928 39.4974 261.213 51.2133L177.426 135L261.213 218.787C272.928 230.503 272.928 249.498 261.213 261.213C249.498 272.928 230.503 272.928 218.787 261.213L135 177.426L51.2133 261.213C39.4974 272.928 20.5026 272.928 8.7867 261.213C-2.9289 249.498 -2.9289 230.503 8.7867 218.787L92.5737 135L8.7867 51.2133C-2.9289 39.4974 -2.9289 20.5026 8.7867 8.7867ZM465 60C423.579 60 390 93.5787 390 135C390 176.421 423.579 210 465 210C506.421 210 540 176.421 540 135C540 93.5787 506.421 60 465 60ZM330 135C330 60.4416 390.441 0 465 0C539.559 0 600 60.4416 600 135C600 209.558 539.559 270 465 270C390.441 270 330 209.558 330 135ZM135 390C93.5787 390 60 423.579 60 465C60 506.421 93.5787 540 135 540C176.421 540 210 506.421 210 465C210 423.579 176.421 390 135 390ZM0 465C0 390.441 60.4416 330 135 330C209.558 330 270 390.441 270 465C270 539.559 209.558 600 135 600C60.4416 600 0 539.559 0 465ZM338.787 338.787C350.502 327.072 369.498 327.072 381.213 338.787L465 422.574L548.787 338.787C560.502 327.072 579.498 327.072 591.213 338.787C602.928 350.502 602.928 369.498 591.213 381.213L507.426 465L591.213 548.787C602.928 560.502 602.928 579.498 591.213 591.213C579.498 602.928 560.502 602.928 548.787 591.213L465 507.426L381.213 591.213C369.498 602.928 350.502 602.928 338.787 591.213C327.072 579.498 327.072 560.502 338.787 548.787L422.574 465L338.787 381.213C327.072 369.498 327.072 350.502 338.787 338.787Z" fill="#0565F5"/>
</g>
</svg>
